# xmcd
#
# Track frame offsets:
# 150
# 14156
# 34551
# 63134
# 74128
# 85595
# 107057
# 123389
# 142727
# 164596
# 177231
# 192727
#
# Disc length: 2833 seconds
#
#
# Revision: 1
# Processed by: cddbd v1.5.1PL2 Copyright (c) Steve Scherf et al.
# Submitted via: FreeRIP 2.945 
#
DISCID=a90b0f0c
DTITLE=Walter Malosetti - Relax
DYEAR=2005
DGENRE=Jazz
TTITLE0=Julian Rhythm
TTITLE1=Relax
TTITLE2=Stardust
TTITLE3=Madrid
TTITLE4=Pepi I
TTITLE5=Struttin' Whit Some Barbacue
TTITLE6=Neco Blues
TTITLE7=The Things Are Getting Better
TTITLE8=Struttin' Whit Some Barbacue
TTITLE9=The Last Time
TTITLE10=Rosetta
TTITLE11=Out Of Nowhere
EXTD=YEAR: 2005
EXTT0=
EXTT1=
EXTT2=
EXTT3=
EXTT4=
EXTT5=
EXTT6=
EXTT7=
EXTT8=
EXTT9=
EXTT10=
EXTT11=
PLAYORDER=
